<svg
  width="20"
  height="20"
  viewBox="0 0 16 16"
  fill="none"
  xmlns="http://www.w3.org/2000/svg"
>
<path
    d="M8.0001 1.33362C5.2001 1.33362 2.6665 3.48002 2.6665 6.80002C2.6665 8.92002 4.3001 11.4136 7.5601 14.2864C7.68329 14.3927 7.84059 14.4512 8.0033 14.4512C8.16602 14.4512 8.32331 14.3927 8.4465 14.2864C11.7001 11.4136 13.3337 8.92002 13.3337 6.80002C13.3337 3.48002 10.8001 1.33362 8.0001 1.33362V1.33362ZM8.0001 8.00002C7.2665 8.00002 6.6665 7.40002 6.6665 6.66642C6.6665 5.93282 7.2665 5.33282 8.0001 5.33282C8.7337 5.33282 9.3337 5.93282 9.3337 6.66642C9.3337 7.40002 8.7337 8.00002 8.0001 8.00002Z"
    fill="white"
  />
</svg>
