<svg width="16" height="16" viewBox="0 0 16 16" fill="none" xmlns="http://www.w3.org/2000/svg">
<path fill-rule="evenodd" clip-rule="evenodd" d="M2.66675 3.33333C2.3016 3.33333 2.00008 3.63485 2.00008 4V12C2.00008 12.3651 2.3016 12.6667 2.66675 12.6667H13.3334C13.6985 12.6667 14.0001 12.3651 14.0001 12V4C14.0001 3.63485 13.6985 3.33333 13.3334 3.33333H2.66675ZM0.666748 4C0.666748 2.89848 1.56523 2 2.66675 2H13.3334C14.4349 2 15.3334 2.89848 15.3334 4V12C15.3334 13.1015 14.4349 14 13.3334 14H2.66675C1.56523 14 0.666748 13.1015 0.666748 12V4Z" fill="white"/>
<path fill-rule="evenodd" clip-rule="evenodd" d="M0.787075 3.61773C0.998215 3.31609 1.4139 3.24274 1.71554 3.45388L7.9999 7.85295L14.2842 3.45388C14.5859 3.24274 15.0016 3.31609 15.2127 3.61773C15.4238 3.91936 15.3505 4.33505 15.0489 4.54619L8.38223 9.21289C8.15263 9.37355 7.84716 9.37355 7.61756 9.21289L0.950922 4.54619C0.649286 4.33505 0.57593 3.91936 0.787075 3.61773Z" fill="white"/>
</svg>
